{
  "accessors": [
    {
      "bufferView": 2,
      "componentType": 5126,
      "count": 65532,
      "max": [
        0.3404290974140167,
        0.17176149785518646,
        0.3243653178215027
      ],
      "min": [
        -0.29901355504989624,
        -0.4242455065250397,
        -0.3627766966819763
      ],
      "type": "VEC3"
    },
    {
      "bufferView": 2,
      "byteOffset": 786384,
      "componentType": 5126,
      "count": 65532,
      "max": [
        0.9999918341636658,
        0.9999861121177673,
        0.9999289512634277
      ],
      "min": [
        -0.9999852180480957,
        -0.9999234080314636,
        -0.9999621510505676
      ],
      "type": "VEC3"
    },
    {
      "bufferView": 1,
      "componentType": 5126,
      "count": 65532,
      "max": [
        0.9971070289611816,
        0.9944263696670532
      ],
      "min": [
        6.598047184525058e-05,
        6.598047184525058e-05
      ],
      "type": "VEC2"
    },
    {
      "bufferView": 0,
      "componentType": 5125,
      "count": 302028,
      "type": "SCALAR"
    },
    {
      "bufferView": 2,
      "byteOffset": 1572768,
      "componentType": 5126,
      "count": 65532,
      "max": [
        0.340137779712677,
        0.17301948368549347,
        0.32464510202407837
      ],
      "min": [
        -0.3004491329193115,
        -0.4242948889732361,
        -0.3648955523967743
      ],
      "type": "VEC3"
    },
    {
      "bufferView": 2,
      "byteOffset": 2359152,
      "componentType": 5126,
      "count": 65532,
      "max": [
        0.9999918341636658,
        0.9999312162399292,
        0.9999480843544006
      ],
      "min": [
        -0.9999774694442749,
        -0.9999788403511047,
        -0.9999197125434875
      ],
      "type": "VEC3"
    },
    {
      "bufferView": 1,
      "byteOffset": 524256,
      "componentType": 5126,
      "count": 65532,
      "max": [
        0.9996025562286377,
        0.9996034502983093
      ],
      "min": [
        6.598047184525058e-05,
        6.598047184525058e-05
      ],
      "type": "VEC2"
    },
    {
      "bufferView": 0,
      "byteOffset": 1208112,
      "componentType": 5125,
      "count": 220068,
      "type": "SCALAR"
    },
    {
      "bufferView": 2,
      "byteOffset": 3145536,
      "componentType": 5126,
      "count": 3587,
      "max": [
        0.33023571968078613,
        0.16845180094242096,
        0.32464510202407837
      ],
      "min": [
        -0.26247963309288025,
        -0.42424535751342773,
        -0.3643825948238373
      ],
      "type": "VEC3"
    },
    {
      "bufferView": 2,
      "byteOffset": 3188580,
      "componentType": 5126,
      "count": 3587,
      "max": [
        0.9998946189880371,
        0.9992750287055969,
        0.9998745322227478
      ],
      "min": [
        -0.9996632933616638,
        -0.9997801184654236,
        -0.9996665120124817
      ],
      "type": "VEC3"
    },
    {
      "bufferView": 1,
      "byteOffset": 1048512,
      "componentType": 5126,
      "count": 3587,
      "max": [
        0.9988678693771362,
        0.998989462852478
      ],
      "min": [
        0.0003299023665022105,
        0.00019794140825979412
      ],
      "type": "VEC2"
    },
    {
      "bufferView": 0,
      "byteOffset": 2088384,
      "componentType": 5125,
      "count": 6564,
      "type": "SCALAR"
    },
    {
      "bufferView": 2,
      "byteOffset": 3231624,
      "componentType": 5126,
      "count": 65532,
      "max": [
        0.34443461894989014,
        0.1712244302034378,
        0.31863731145858765
      ],
      "min": [
        -0.29819929599761963,
        -0.4242464601993561,
        -0.35027456283569336
      ],
      "type": "VEC3"
    },
    {
      "bufferView": 2,
      "byteOffset": 4018008,
      "componentType": 5126,
      "count": 65532,
      "max": [
        0.9999393224716187,
        0.9999883770942688,
        0.9999806880950928
      ],
      "min": [
        -0.9999954104423523,
        -0.9999648928642273,
        -0.9999855160713196
      ],
      "type": "VEC3"
    },
    {
      "bufferView": 1,
      "byteOffset": 1077208,
      "componentType": 5126,
      "count": 65532,
      "max": [
        0.9959295988082886,
        0.9992798566818237
      ],
      "min": [
        6.654245225945488e-05,
        6.654245225945488e-05
      ],
      "type": "VEC2"
    },
    {
      "bufferView": 0,
      "byteOffset": 2114640,
      "componentType": 5125,
      "count": 298620,
      "type": "SCALAR"
    },
    {
      "bufferView": 2,
      "byteOffset": 4804392,
      "componentType": 5126,
      "count": 62132,
      "max": [
        0.3444426655769348,
        0.17277400195598602,
        0.3189281225204468
      ],
      "min": [
        -0.3004491329193115,
        -0.4242924749851227,
        -0.3642098903656006
      ],
      "type": "VEC3"
    },
    {
      "bufferView": 2,
      "byteOffset": 5549976,
      "componentType": 5126,
      "count": 62132,
      "max": [
        0.9999596476554871,
        0.9999812245368958,
        0.9999859929084778
      ],
      "min": [
        -0.9999285340309143,
        -0.9999886751174927,
        -0.9999495148658752
      ],
      "type": "VEC3"
    },
    {
      "bufferView": 1,
      "byteOffset": 1601464,
      "componentType": 5126,
      "count": 62132,
      "max": [
        0.99812912940979,
        0.9994992613792419
      ],
      "min": [
        0.00019962736405432224,
        6.654245225945488e-05
      ],
      "type": "VEC2"
    },
    {
      "bufferView": 0,
      "byteOffset": 3309120,
      "componentType": 5125,
      "count": 197433,
      "type": "SCALAR"
    }
  ],
  "asset": {
    "extras": {
      "author": "AlexyStudio (https://sketchfab.com/AlexyStudio)",
      "license": "CC-BY-4.0 (http://creativecommons.org/licenses/by/4.0/)",
      "source": "https://sketchfab.com/3d-models/small-banana-tree-6e9040d616a64c38aaf9f85f8a9c083e",
      "title": "Small banana tree"
    },
    "generator": "Sketchfab-14.35.0",
    "version": "2.0"
  },
  "bufferViews": [
    {
      "buffer": 0,
      "byteLength": 4098852,
      "name": "floatBufferViews",
      "target": 34963
    },
    {
      "buffer": 0,
      "byteLength": 2098520,
      "byteOffset": 4098852,
      "byteStride": 8,
      "name": "floatBufferViews",
      "target": 34962
    },
    {
      "buffer": 0,
      "byteLength": 6295560,
      "byteOffset": 6197372,
      "byteStride": 12,
      "name": "floatBufferViews",
      "target": 34962
    }
  ],
  "buffers": [
    {
      "byteLength": 12492932,
      "uri": "scene.bin"
    }
  ],
  "extensionsUsed": [
    "KHR_materials_unlit"
  ],
  "images": [
    {
      "uri": "textures/material_0_baseColor.jpeg"
    },
    {
      "uri": "textures/material_1_baseColor.jpeg"
    }
  ],
  "materials": [
    {
      "extensions": {
        "KHR_materials_unlit": {}
      },
      "name": "material_0",
      "pbrMetallicRoughness": {
        "baseColorTexture": {
          "index": 0
        },
        "metallicFactor": 0.0
      }
    },
    {
      "extensions": {
        "KHR_materials_unlit": {}
      },
      "name": "material_1",
      "pbrMetallicRoughness": {
        "baseColorTexture": {
          "index": 1
        },
        "metallicFactor": 0.0
      }
    }
  ],
  "meshes": [
    {
      "name": "Object_0",
      "primitives": [
        {
          "attributes": {
            "NORMAL": 1,
            "POSITION": 0,
            "TEXCOORD_0": 2
          },
          "indices": 3,
          "material": 0,
          "mode": 4
        }
      ]
    },
    {
      "name": "Object_1",
      "primitives": [
        {
          "attributes": {
            "NORMAL": 5,
            "POSITION": 4,
            "TEXCOORD_0": 6
          },
          "indices": 7,
          "material": 0,
          "mode": 4
        }
      ]
    },
    {
      "name": "Object_2",
      "primitives": [
        {
          "attributes": {
            "NORMAL": 9,
            "POSITION": 8,
            "TEXCOORD_0": 10
          },
          "indices": 11,
          "material": 0,
          "mode": 4
        }
      ]
    },
    {
      "name": "Object_3",
      "primitives": [
        {
          "attributes": {
            "NORMAL": 13,
            "POSITION": 12,
            "TEXCOORD_0": 14
          },
          "indices": 15,
          "material": 1,
          "mode": 4
        }
      ]
    },
    {
      "name": "Object_4",
      "primitives": [
        {
          "attributes": {
            "NORMAL": 17,
            "POSITION": 16,
            "TEXCOORD_0": 18
          },
          "indices": 19,
          "material": 1,
          "mode": 4
        }
      ]
    }
  ],
  "nodes": [
    {
      "children": [
        1
      ],
      "matrix": [
        1.0,
        0.0,
        0.0,
        0.0,
        0.0,
        2.220446049250313e-16,
        -1.0,
        0.0,
        0.0,
        1.0,
        2.220446049250313e-16,
        0.0,
        0.0,
        0.0,
        0.0,
        1.0
      ],
      "name": "Sketchfab_model"
    },
    {
      "children": [
        2
      ],
      "name": "root"
    },
    {
      "children": [
        3
      ],
      "matrix": [
        1.0,
        0.0,
        0.0,
        0.0,
        0.0,
        2.220446049250313e-16,
        1.0,
        0.0,
        0.0,
        -1.0,
        2.220446049250313e-16,
        0.0,
        0.0,
        0.0,
        0.0,
        1.0
      ],
      "name": "GLTF_SceneRootNode"
    },
    {
      "children": [
        4,
        5,
        6,
        7,
        8
      ],
      "name": "_0"
    },
    {
      "mesh": 0,
      "name": "Object_4"
    },
    {
      "mesh": 1,
      "name": "Object_5"
    },
    {
      "mesh": 2,
      "name": "Object_6"
    },
    {
      "mesh": 3,
      "name": "Object_7"
    },
    {
      "mesh": 4,
      "name": "Object_8"
    }
  ],
  "samplers": [
    {
      "magFilter": 9729,
      "minFilter": 9987,
      "wrapS": 10497,
      "wrapT": 10497
    }
  ],
  "scene": 0,
  "scenes": [
    {
      "name": "Sketchfab_Scene",
      "nodes": [
        0
      ]
    }
  ],
  "textures": [
    {
      "sampler": 0,
      "source": 0
    },
    {
      "sampler": 0,
      "source": 1
    }
  ]
}
