{"accessors" : [{"bufferView" : 0, "byteOffset" : 0, "componentType" : 5123, "count" : 14988, "type" : "SCALAR", "max" : [3929], "min" : [0]}, {"bufferView" : 1, "byteOffset" : 0, "componentType" : 5126, "count" : 3930, "type" : "VEC3", "max" : [1.21274995803833, 2.6581621170043945, 1.3197749853134155], "min" : [-1.7596399784088135, -0.08558200299739838, -1.1108609437942505], "name" : "POSITION"}, {"bufferView" : 1, "byteOffset" : 12, "componentType" : 5126, "count" : 3930, "type" : "VEC2", "max" : [0.9973670244216919, 1.0521949529647827], "min" : [-0.022306999191641808, 0.009491026401519775], "name" : "TEXCOORD_0"}, {"bufferView" : 1, "byteOffset" : 20, "componentType" : 5126, "count" : 3930, "type" : "VEC3", "max" : [0.9997496604919434, 0.999554455280304, 0.9999528527259827], "min" : [-0.9998211860656738, -0.999911904335022, -0.9999523162841797], "name" : "NORMAL"}], "asset" : {"generator" : "Aspose.3D 24.6.0", "version" : "2.0"}, "buffers" : [{"uri" : "buffer.bin", "byteLength" : 155744}], "bufferViews" : [{"buffer" : 0, "byteOffset" : 0, "byteLength" : 29976, "target" : 34963}, {"buffer" : 0, "byteOffset" : 29980, "byteLength" : 125760, "byteStride" : 32, "target" : 34962}], "meshes" : [{"primitives" : [{"attributes" : {"POSITION" : 1, "TEXCOORD_0" : 2, "NORMAL" : 3}, "indices" : 0, "mode" : 4}], "name" : ""}], "nodes" : [{"mesh" : 0, "name" : "Banana_Plant_01_LOD0_Banana_Plant"}], "scene" : 0, "scenes" : [{"nodes" : [0]}]}